<?xml version="1.0" encoding="UTF-8" standalone="no"?><!DOCTYPE svg PUBLIC "-//W3C//DTD SVG 1.1//EN" "http://www.w3.org/Graphics/SVG/1.1/DTD/svg11.dtd"><svg width="100%" height="100%" viewBox="0 0 678 650" version="1.1" xmlns="http://www.w3.org/2000/svg" xmlns:xlink="http://www.w3.org/1999/xlink" xml:space="preserve" xmlns:serif="http://www.serif.com/" style="fill-rule:evenodd;clip-rule:evenodd;stroke-miterlimit:10;"><g id="Layer-1" serif:id="Layer 1"><path d="M213.353,515.353c-26.682,25.035 -10.626,68.115 26.102,70.693c25.227,1.77 65.905,1.843 91.083,-0.007c51.618,-3.792 51.385,-76.764 0.998,-81.075c-30.164,1.913 -63.205,-2.445 -93.02,0.052c-8.791,0.736 -18.691,4.265 -25.164,10.337m-43.843,6.625c0.001,-21.81 -17.679,-39.491 -39.489,-39.491c-21.811,-0 -39.491,17.681 -39.491,39.491c-0,21.81 17.68,39.491 39.491,39.491c21.81,-0 39.49,-17.681 39.49,-39.491m134.49,-33.978c-0.088,-23.053 -48.244,-20.514 -51,-0l51,-0Zm132.735,-24.765c-6.615,1.226 -17.405,9.413 -20.575,15.425c-2.55,4.832 -5.97,20.717 2.885,17.903c3.308,-1.051 14.298,-7.876 17.87,-10.147c4.171,-2.65 18.84,-12.804 20.633,-16.444c3.69,-7.485 -17.053,-7.434 -20.813,-6.737m69.272,-110.231c-0.232,7.662 0.11,16.88 -1.11,24.393c-0.57,3.505 -5.36,15.139 -4.441,16.595c8.444,7.954 32.953,13.336 39.402,1.369c5.055,-9.383 -9.971,-2.465 -12.358,-7.353c-1.436,-5.893 1.258,-11.16 0.408,-17.424c-1.525,-11.245 -11.973,-15.745 -21.902,-17.58m-1.007,-63.004l0,44.5c12.28,4.597 19.5,8.367 26.554,-5.446c9.447,-18.498 -9.542,-35.592 -26.554,-39.054m-473.712,-74.697c-7.79,6.383 0.799,24.899 5.304,31.606c24.925,37.115 69.118,35.833 77.959,-11.858c1.214,-6.547 3.799,-30.349 -7.842,-26.848c-7.834,2.356 -11.581,34.294 -20.158,34.74c-12.96,0.672 -1.831,-15.108 -4.068,-19.928c-0.58,-1.251 -3.172,-2.922 -4.31,-4.687c-4.239,-6.569 -14.201,-27.379 -22.701,-27.222c-1.781,0.033 -5.228,2.322 -5.955,3.908c-3.98,8.674 17.116,26.534 15.313,35.252c-0.573,2.772 -3.457,5.667 -6.332,5.837c-8.949,0.53 -17.125,-29.062 -27.21,-20.8m150.712,17.197l0,55.5c5.554,-5.947 15.124,-3.157 15.095,5.503c-0.026,7.925 -8.868,13.822 -15.137,17.165c1.071,19.942 -1.276,41.078 0.001,60.874c1.441,22.35 11.129,34.868 35.041,32.448c-6.996,-9.864 -11.973,-19.121 -12.984,-31.505c-3.717,-45.55 2.789,-95.883 -0.064,-141.936c-16.269,-21.541 -25.792,-45.158 -18.948,-72.548c-5.524,0.714 -10.432,-2.335 -13.558,2.945c-7.233,12.215 -6.81,35.036 -1.933,48.042c2.414,6.439 11.691,18.727 12.487,23.512m23.215,-76.293c-6.331,14.517 -5.584,30.737 1.076,45.003c4.489,9.615 13.487,16.713 15.624,27.376l0.103,143.897c1.606,15.163 12.195,28.053 27.476,30.524l208.05,0.037c15.187,-0.723 27.319,-13.965 29.445,-28.555c3.378,-45.687 -4.528,-97.947 0.134,-142.866c1.668,-16.07 17.577,-25.993 20.603,-45.398c11.061,-70.95 -81.608,-83.867 -132.273,-87.27c-11.897,6.012 -23.024,13.169 -35.094,18.904c-42.234,20.067 -88.895,31.883 -135.144,38.348m176.785,-90.197c-10.048,2.393 -18.983,4.681 -29.489,3.98c-2.752,-0.183 -6.655,-2.242 -8.78,-1.793c-1.915,0.405 -16.04,10.345 -19.709,12.325c-36.68,19.792 -80.845,31.691 -122.287,35.713l-38.734,23.755c29.34,1.05 58.586,-3.699 87.007,-10.482c32.663,-7.796 69.492,-19.722 98.664,-36.336c11.992,-6.831 25.369,-15.861 33.328,-27.162m-177.995,26.991c44.088,-4.895 87.651,-18.57 124.979,-42.497c-6.13,-8.222 -17.239,-28.789 -28.498,-29.565c-12.658,-0.873 -28.353,20.862 -43.439,23.608c-13.027,2.372 -29.548,-3.222 -41.019,0.98c-4.858,1.78 -7.245,4.421 -8.584,9.417c-2.968,11.075 -1.287,26.416 -3.439,38.057m-39.005,144.499c-0.507,-2.525 -9.767,-15.137 -11.858,-20.141c-8.345,-19.977 -6.759,-41.864 0.936,-61.766c-15.142,-7.296 -18.585,-20.435 -3.986,-31.001c9.967,-7.213 22.641,-13.447 33.745,-18.75l3.174,-42.331c1.085,-19.132 12.037,-36.791 32.453,-38.547c10.959,-0.942 28.184,3.381 37.06,-0.94c13.504,-6.574 21.555,-21.249 38.941,-22.06c29.314,-1.367 41.641,30.909 57.799,49.319c12.848,0.776 31.775,-9.829 42.78,0.174c9.159,8.324 4.461,22.914 -3.042,30.533c41.849,4.276 93.845,13.042 119.814,49.695c16.942,23.913 18.346,55.329 4.356,80.987c-2.731,5.008 -11.023,14.578 -11.944,19.056c-0.848,4.118 -1.025,30.71 -0.239,34.784c0.175,0.907 0.227,1.368 0.995,2.005c1.311,1.088 12.296,4.506 15.685,6.315c23.505,12.547 42.49,39.646 26.359,65.696c-3.042,4.912 -6.882,7.507 -10.062,11.977c3.841,5.074 5.74,9.853 6.933,16.098c0.351,1.835 -0.383,5.191 0.259,6.245c0.277,0.454 5.992,2.142 8.677,5.818c9.064,12.409 1.589,27.28 -10.529,34.14c-17.476,9.893 -38.218,4.176 -53.658,-6.691c-6.289,5.22 -13.391,9.719 -21.446,11.587c-3.138,0.728 -10.933,2.298 -13.702,2.298l-44.5,-0l6.007,31.997c6.6,-2.9 12.618,-7.098 19.771,-8.719c14.52,-3.29 32.432,0.918 38.957,15.489c6.04,13.488 -3.606,23.892 -13.821,31.647c-8.808,6.687 -35.124,23.612 -45.417,23.576c-14.186,-0.049 -21.042,-16.199 -20.492,-28.462c0.237,-5.284 4.26,-14.408 3.976,-17.906c-0.422,-5.187 -3.656,-14.407 -4.689,-20.413c-1.556,-9.04 -2.727,-18.18 -4.292,-27.209l-96,-0l0,35c16.274,2.151 28.359,14.148 28.01,31c31.099,-4.964 62.229,20.265 64.975,51.516c2.671,30.406 -19.313,60.598 -50.5,63.468c-32.952,3.033 -70.433,-2.13 -103.861,-0.107c-19.871,-2.911 -37.645,-16.139 -45.111,-34.889c-0.55,-1.382 -3.513,-9.935 -3.513,-10.488l0,-17.5l-12.03,20.47c-40.873,43.01 -110.785,5.623 -96.671,-52.671c11.092,-45.812 70.045,-57.079 99.213,-20.81c3.809,4.736 11.488,19.757 11.488,25.511l0,15.5l10.171,-18.329c9.879,-11.763 24.006,-21.353 39.819,-21.683c-0.077,-13.841 12.664,-27.913 25.962,-30.536c4.296,-0.847 8.782,-0.191 13.057,-1.462c-2.216,-10.912 -0.861,-22.898 -0.009,-33.99l-69.5,-0c-18.706,-0 -40.5,-21.756 -40.5,-40.5l0,-67.5c-27.385,5.887 -51.069,-6.366 -67.471,-27.689c-29.754,12.444 -60.079,-6.713 -75.754,-31.585c-12.095,-19.193 -17.753,-50.924 11.091,-56.86c-0.37,-15.45 12.24,-25.226 27.396,-22.628c11.816,2.026 23.689,18.172 27.752,28.76c7.793,-9.065 15.995,-16.214 28.687,-11.198c23.905,9.449 15.744,54.678 4.325,71.725c-2.524,3.768 -5.81,6.051 -7.953,9.838c13.549,17.094 29.456,25.746 51.927,20.637l0,-57.5Z" style="fill-rule:nonzero;"/><path d="M182,232.5c-0.797,-4.785 -10.073,-17.074 -12.487,-23.513c-4.877,-13.005 -5.3,-35.826 1.932,-48.042c3.126,-5.279 8.035,-2.231 13.559,-2.944c-6.844,27.39 2.678,51.007 18.948,72.547c2.852,46.053 -3.653,96.387 0.064,141.936c1.01,12.384 5.988,21.642 12.984,31.506c-23.913,2.419 -33.6,-10.098 -35.042,-32.448c-1.277,-19.796 1.071,-40.932 0,-60.875c6.269,-3.342 15.11,-9.24 15.137,-17.164c0.028,-8.661 -9.541,-11.45 -15.095,-5.503l0,-55.5Z" style="fill:#d8a954;fill-rule:nonzero;"/><path d="M204.005,93.001c2.152,-11.641 0.471,-26.982 3.439,-38.057c1.339,-4.996 3.726,-7.637 8.583,-9.417c11.471,-4.202 27.993,1.392 41.02,-0.98c15.086,-2.746 30.781,-24.481 43.438,-23.608c11.26,0.776 22.369,21.343 28.498,29.565c-37.327,23.927 -80.891,37.602 -124.978,42.497" style="fill:#a16c37;fill-rule:nonzero;"/><path d="M381.999,66.01c-7.959,11.301 -21.336,20.331 -33.328,27.162c-29.171,16.614 -66.001,28.54 -98.664,36.336c-28.42,6.783 -57.667,11.532 -87.007,10.482l38.734,-23.755c41.443,-4.022 85.607,-15.921 122.287,-35.713c3.669,-1.98 17.794,-11.92 19.709,-12.325c2.125,-0.449 6.028,1.61 8.78,1.793c10.506,0.701 19.441,-1.587 29.489,-3.98" style="fill:#a16c37;fill-rule:nonzero;"/><path d="M31.288,215.303c10.085,-8.262 18.261,21.33 27.21,20.8c2.874,-0.17 5.758,-3.065 6.332,-5.837c1.803,-8.718 -19.293,-26.578 -15.314,-35.252c0.728,-1.586 4.175,-3.875 5.956,-3.908c8.499,-0.157 18.462,20.653 22.7,27.222c1.139,1.765 3.731,3.436 4.311,4.687c2.237,4.82 -8.892,20.6 4.067,19.928c8.577,-0.446 12.325,-32.384 20.159,-34.74c11.641,-3.501 9.056,20.301 7.842,26.848c-8.841,47.691 -53.035,48.973 -77.96,11.858c-4.504,-6.707 -13.093,-25.223 -5.303,-31.606" style="fill:#e9bf6a;fill-rule:nonzero;"/><path d="M506.007,353.004c9.929,1.835 20.377,6.335 21.902,17.58c0.85,6.264 -1.844,11.531 -0.409,17.424c2.388,4.888 17.414,-2.03 12.358,7.353c-6.448,11.967 -30.958,6.584 -39.402,-1.369c-0.919,-1.456 3.871,-13.09 4.441,-16.595c1.22,-7.513 0.878,-16.731 1.11,-24.393" style="fill:#e9bf6a;fill-rule:nonzero;"/><path d="M436.735,463.235c3.759,-0.697 24.502,-0.748 20.814,6.737c-1.794,3.639 -16.462,13.793 -20.633,16.444c-3.574,2.271 -14.564,9.096 -17.871,10.147c-8.856,2.814 -5.434,-13.071 -2.886,-17.904c3.171,-6.011 13.962,-14.198 20.576,-15.424" style="fill:#a16c37;fill-rule:nonzero;"/><path d="M319.734,275.17c-10.052,2.08 -5.326,14.573 -0.272,19.868c15.529,16.27 45.501,18.569 65.212,9.136c7.441,-3.56 26.51,-17.758 17.382,-26.734c-6.883,-6.769 -14.189,2.64 -20.381,5.735c-13.992,6.993 -31.357,6.863 -45.351,0c-4.986,-2.445 -10.978,-9.166 -16.59,-8.005m97.003,-81.931c-15.451,2.468 -23.861,24.133 -22.612,38.143c3.466,38.875 49.023,38.026 52.75,-0.004c1.674,-17.08 -10.13,-41.335 -30.138,-38.139m-123.968,0.012c-16.97,2.08 -24.929,23.238 -23.751,38.234c2.679,34.112 42.961,40.303 51.514,5.547c4.414,-17.935 -5.452,-46.516 -27.763,-43.781m-87.554,-37.045c46.248,-6.464 92.909,-18.281 135.143,-38.348c12.07,-5.735 23.197,-12.891 35.094,-18.904c50.665,3.403 143.335,16.32 132.273,87.27c-3.025,19.405 -18.935,29.329 -20.603,45.398c-4.661,44.919 3.245,97.179 -0.134,142.866c-2.125,14.59 -14.258,27.833 -29.445,28.555l-208.049,-0.037c-15.282,-2.47 -25.871,-15.361 -27.477,-30.523l-0.103,-143.898c-2.137,-10.663 -11.135,-17.761 -15.624,-27.376c-6.659,-14.265 -7.407,-30.486 -1.075,-45.003" style="fill:#e9bf6a;fill-rule:nonzero;"/><path d="M307.418,217.519c-0,-3.518 -2.852,-6.37 -6.37,-6.37c-3.517,0 -6.369,2.852 -6.369,6.37c-0,3.518 2.852,6.37 6.369,6.37c3.518,0 6.37,-2.852 6.37,-6.37m-14.649,-24.268c22.311,-2.735 32.177,25.847 27.764,43.781c-8.554,34.756 -48.836,28.565 -51.515,-5.546c-1.178,-14.997 6.781,-36.155 23.751,-38.235" style="fill-rule:nonzero;"/><path d="M307.418,217.519c-0,3.518 -2.852,6.37 -6.37,6.37c-3.517,0 -6.369,-2.852 -6.369,-6.37c-0,-3.518 2.852,-6.37 6.369,-6.37c3.518,0 6.37,2.852 6.37,6.37" style="fill:#fff;fill-rule:nonzero;"/><path d="M319.734,275.17c5.612,-1.161 11.604,5.56 16.59,8.005c13.994,6.863 31.359,6.993 45.351,0c6.192,-3.095 13.498,-12.504 20.381,-5.735c9.128,8.976 -9.941,23.174 -17.382,26.734c-19.711,9.433 -49.683,7.134 -65.212,-9.136c-5.054,-5.295 -9.78,-17.788 0.272,-19.868" style="fill-rule:nonzero;"/><path d="M432.236,217.4c0,-3.506 -2.842,-6.348 -6.348,-6.348c-3.505,-0 -6.347,2.842 -6.347,6.348c0,3.506 2.842,6.348 6.347,6.348c3.506,-0 6.348,-2.842 6.348,-6.348m-15.499,-24.161c20.008,-3.195 31.812,21.059 30.138,38.14c-3.727,38.029 -49.284,38.878 -52.75,0.003c-1.248,-14.009 7.161,-35.675 22.612,-38.143" style="fill-rule:nonzero;"/><path d="M432.236,217.4c0,3.506 -2.842,6.348 -6.348,6.348c-3.505,-0 -6.347,-2.842 -6.347,-6.348c0,-3.506 2.842,-6.348 6.347,-6.348c3.506,-0 6.348,2.842 6.348,6.348" style="fill:#fff;fill-rule:nonzero;"/><path d="M169.51,521.978c-0,21.81 -17.681,39.491 -39.491,39.491c-21.81,-0 -39.491,-17.681 -39.491,-39.491c-0,-21.81 17.681,-39.491 39.491,-39.491c21.81,-0 39.491,17.681 39.491,39.491" style="fill:#e9bf6a;fill-rule:nonzero;"/><path d="M213.353,515.353c6.472,-6.072 16.372,-9.601 25.163,-10.337c29.815,-2.497 62.856,1.861 93.019,-0.052c50.388,4.311 50.62,77.283 -0.997,81.075c-25.178,1.85 -65.856,1.777 -91.083,0.007c-36.728,-2.578 -52.784,-45.658 -26.102,-70.693" style="fill:#e9bf6a;fill-rule:nonzero;"/><path d="M304,488l-51,0c2.756,-20.514 50.911,-23.053 51,0" style="fill:#a16c37;fill-rule:nonzero;"/><path d="M582.062,589.918c-0,-11.538 -9.353,-20.891 -20.891,-20.891c-11.538,0 -20.892,9.353 -20.892,20.891c-0,11.538 9.354,20.891 20.892,20.891c11.538,0 20.891,-9.353 20.891,-20.891m16.672,0.342c-0,20.94 -16.976,37.916 -37.917,37.916c-20.94,0 -37.916,-16.976 -37.916,-37.916c-0,-20.941 16.976,-37.917 37.916,-37.917c20.941,0 37.917,16.976 37.917,37.917" style="fill-rule:nonzero;"/><path d="M500.718,574.697c0,-24.478 -19.843,-44.321 -44.32,-44.321c-24.478,-0 -44.321,19.843 -44.321,44.321c0,24.478 19.843,44.321 44.321,44.321c24.477,-0 44.32,-19.843 44.32,-44.322m16.925,0.351c0,33.904 -27.485,61.39 -61.39,61.39c-33.905,0 -61.391,-27.486 -61.391,-61.39c0,-33.905 27.486,-61.39 61.391,-61.39c33.905,-0 61.39,27.485 61.39,61.39" style="fill-rule:nonzero;"/><path d="M500.718,574.697c0,24.477 -19.843,44.32 -44.32,44.32c-24.478,0 -44.321,-19.843 -44.321,-44.321c0,-24.478 19.843,-44.321 44.321,-44.321c24.477,0 44.32,19.843 44.32,44.322" style="fill:#e9bf6a;fill-rule:nonzero;"/><path d="M582.062,589.918c0,11.538 -9.353,20.891 -20.891,20.891c-11.538,0 -20.892,-9.353 -20.892,-20.891c0,-11.538 9.354,-20.891 20.892,-20.891c11.538,0 20.891,9.353 20.891,20.891" style="fill:#e9bf6a;fill-rule:nonzero;"/><path d="M299.421,367.233c0,5.768 -4.676,10.445 -10.445,10.445c-5.768,0 -10.445,-4.677 -10.445,-10.445c0,-5.768 4.677,-10.445 10.445,-10.445c5.769,0 10.445,4.677 10.445,10.445" style="fill:#cda356;fill-rule:nonzero;"/><path d="M299.421,367.233c0,-5.764 -4.68,-10.445 -10.445,-10.445c-5.764,0 -10.445,4.681 -10.445,10.445c0,5.765 4.681,10.445 10.445,10.445c5.765,0 10.445,-4.68 10.445,-10.445Z" style="fill:none;stroke:#bf934c;stroke-width:1px;"/><path d="M266.494,340.855c0,4.513 -3.659,8.172 -8.172,8.172c-4.514,-0 -8.173,-3.659 -8.173,-8.172c0,-4.513 3.659,-8.172 8.173,-8.172c4.513,-0 8.172,3.659 8.172,8.172" style="fill:#cda356;fill-rule:nonzero;"/><path d="M266.494,340.855c0,-4.51 -3.662,-8.172 -8.172,-8.172c-4.511,-0 -8.173,3.662 -8.173,8.172c0,4.51 3.662,8.172 8.173,8.172c4.51,-0 8.172,-3.662 8.172,-8.172Z" style="fill:none;stroke:#bf934c;stroke-width:1px;"/><path d="M477.3,157.761c0,4.513 -3.659,8.172 -8.172,8.172c-4.514,-0 -8.173,-3.659 -8.173,-8.172c0,-4.513 3.659,-8.172 8.173,-8.172c4.513,-0 8.172,3.659 8.172,8.172" style="fill:#cda356;fill-rule:nonzero;"/><path d="M477.3,157.761c0,-4.511 -3.662,-8.172 -8.173,-8.172c-4.51,-0 -8.172,3.661 -8.172,8.172c0,4.51 3.662,8.172 8.173,8.172c4.51,-0 8.172,-3.662 8.172,-8.172Z" style="fill:none;stroke:#bf934c;stroke-width:1px;"/><path d="M441.433,138.939c0,3.852 -3.123,6.975 -6.976,6.975c-3.852,-0 -6.975,-3.123 -6.975,-6.975c0,-3.853 3.123,-6.975 6.975,-6.975c3.853,-0 6.976,3.122 6.976,6.975" style="fill:#cda356;fill-rule:nonzero;"/><path d="M441.433,138.939c0,-3.85 -3.125,-6.975 -6.975,-6.975c-3.85,-0 -6.976,3.125 -6.976,6.975c0,3.849 3.126,6.975 6.976,6.975c3.85,-0 6.975,-3.126 6.975,-6.975Z" style="fill:none;stroke:#bf934c;stroke-width:1px;"/><path d="M448.409,367.233c-0,3.852 -3.123,6.976 -6.975,6.976c-3.853,0 -6.976,-3.124 -6.976,-6.976c-0,-3.852 3.123,-6.975 6.976,-6.975c3.852,0 6.975,3.123 6.975,6.975" style="fill:#cda356;fill-rule:nonzero;"/><path d="M448.409,367.234c-0,-3.85 -3.126,-6.976 -6.976,-6.976c-3.85,0 -6.975,3.126 -6.975,6.976c-0,3.85 3.125,6.975 6.975,6.975c3.85,0 6.976,-3.125 6.976,-6.975Z" style="fill:none;stroke:#bf934c;stroke-width:1px;"/></g></svg>